<svg width="165" height="48" viewBox="0 0 165 48" fill="none" xmlns="http://www.w3.org/2000/svg">
<g id="Company logo" clip-path="url(#clip0_297_10151)">
<g id="Vector">
<path d="M35.2844 11.3494C32.5993 10.0931 29.7281 9.18005 26.7264 8.66016C26.3578 9.32665 25.9271 10.2231 25.6302 10.9362C22.4393 10.4563 19.2778 10.4563 16.1456 10.9362C15.8487 10.2231 15.4083 9.32665 15.0363 8.66016C12.0314 9.18005 9.15698 10.0965 6.4718 11.3561C1.05576 19.5404 -0.41244 27.5215 0.321661 35.3892C3.91386 38.0718 7.39514 39.7014 10.8177 40.7677C11.6627 39.6047 12.4164 38.3684 13.0656 37.0654C11.8291 36.5956 10.6447 36.0157 9.52568 35.3426C9.82256 35.1227 10.113 34.8927 10.3935 34.6561C17.219 37.8485 24.6351 37.8485 31.379 34.6561C31.6629 34.8927 31.9532 35.1227 32.2469 35.3426C31.1245 36.019 29.9369 36.5989 28.7004 37.0688C29.3496 38.3684 30.1001 39.6081 30.9483 40.771C34.3742 39.7047 37.8587 38.0751 41.4509 35.3892C42.3122 26.2685 39.9794 18.3608 35.2844 11.3494ZM13.9955 30.5506C11.9466 30.5506 10.2663 28.6378 10.2663 26.3085C10.2663 23.9792 11.9107 22.063 13.9955 22.063C16.0804 22.063 17.7606 23.9758 17.7248 26.3085C17.728 28.6378 16.0804 30.5506 13.9955 30.5506ZM27.777 30.5506C25.7281 30.5506 24.0478 28.6378 24.0478 26.3085C24.0478 23.9792 25.6922 22.063 27.777 22.063C29.8619 22.063 31.5422 23.9758 31.5063 26.3085C31.5063 28.6378 29.8619 30.5506 27.777 30.5506Z" fill="#A05BF8"/>
<path d="M55.8878 16.8519H64.7946C66.9418 16.8519 68.7557 17.1951 70.2438 17.8783C71.7279 18.5614 72.8407 19.5144 73.5782 20.7341C74.3152 21.9538 74.6871 23.35 74.6871 24.9229C74.6871 26.4625 74.3021 27.8587 73.5322 29.1084C72.7623 30.3613 71.5909 31.3511 70.0152 32.0809C68.4395 32.8107 66.488 33.1772 64.1555 33.1772H55.8878V16.8519ZM64.0639 29.0284C65.5094 29.0284 66.6222 28.6585 67.3984 27.922C68.1751 27.1822 68.5635 26.1759 68.5635 24.8996C68.5635 23.7166 68.2172 22.7735 67.5257 22.067C66.8343 21.3606 65.7869 21.004 64.3869 21.004H61.6006V29.0284H64.0639Z" fill="#A05BF8"/>
<path d="M88.0218 33.1573C86.7885 32.8307 85.6757 32.3575 84.6874 31.7344V27.8622C85.4346 28.452 86.4359 28.9385 87.692 29.3217C88.9481 29.7016 90.1621 29.8916 91.3364 29.8916C91.8845 29.8916 92.2991 29.8183 92.5794 29.6716C92.8603 29.525 93.0008 29.3484 93.0008 29.1451C93.0008 28.9119 92.9257 28.7186 92.7722 28.5619C92.6186 28.4053 92.3218 28.2753 91.8817 28.1654L89.1409 27.5355C87.5715 27.1624 86.4587 26.6458 85.7968 25.9827C85.1343 25.3228 84.8045 24.4564 84.8045 23.3834C84.8045 22.4803 85.0917 21.6973 85.6728 21.0274C86.25 20.3576 87.0722 19.8411 88.139 19.4778C89.2063 19.1113 90.4522 18.928 91.8845 18.928C93.1634 18.928 94.3348 19.068 95.4021 19.3479C96.4688 19.6278 97.3496 19.9844 98.0513 20.4209V24.0832C97.3332 23.6467 96.5109 23.3035 95.5715 23.0435C94.635 22.7869 93.6729 22.6603 92.6806 22.6603C91.2482 22.6603 90.534 22.9102 90.534 23.4067C90.534 23.64 90.6449 23.8133 90.8667 23.9299C91.0885 24.0465 91.4962 24.1665 92.087 24.2932L94.3706 24.713C95.8621 24.9763 96.9743 25.4395 97.705 26.0993C98.4363 26.7591 98.8014 27.7355 98.8014 29.0285C98.8014 30.4447 98.198 31.5678 96.9874 32.4009C95.7768 33.234 94.0607 33.6505 91.8356 33.6505C90.5272 33.6472 89.2552 33.4839 88.0218 33.1573Z" fill="#A05BF8"/>
<path d="M104.192 32.6673C102.884 32.0141 101.896 31.1277 101.237 30.008C100.578 28.8883 100.245 27.6287 100.245 26.2291C100.245 24.8295 100.587 23.5765 101.272 22.4735C101.958 21.3705 102.962 20.5041 104.287 19.8742C105.612 19.2444 107.194 18.9312 109.038 18.9312C111.321 18.9312 113.217 19.4211 114.724 20.4007V24.6696C114.193 24.2963 113.572 23.9931 112.864 23.7598C112.157 23.5266 111.4 23.4099 110.591 23.4099C109.175 23.4099 108.069 23.6731 107.269 24.203C106.47 24.7328 106.069 25.4227 106.069 26.2791C106.069 27.1188 106.457 27.8053 107.233 28.3452C108.01 28.8817 109.135 29.1516 110.613 29.1516C111.374 29.1516 112.124 29.0383 112.864 28.815C113.602 28.5884 114.238 28.3119 114.77 27.9852V32.1141C113.096 33.1404 111.155 33.6536 108.946 33.6536C107.087 33.647 105.501 33.3204 104.192 32.6673Z" fill="#A05BF8"/>
<path d="M120.421 32.6675C119.103 32.0144 118.098 31.1213 117.406 29.985C116.715 28.8486 116.365 27.5823 116.365 26.1827C116.365 24.7831 116.711 23.5334 117.406 22.4371C118.101 21.3408 119.099 20.481 120.411 19.8578C121.719 19.2347 123.282 18.9248 125.093 18.9248C126.904 18.9248 128.466 19.2347 129.775 19.8578C131.083 20.481 132.082 21.3341 132.767 22.4238C133.452 23.5135 133.794 24.7631 133.794 26.1794C133.794 27.579 133.452 28.8453 132.767 29.9816C132.082 31.1179 131.08 32.011 129.762 32.6642C128.444 33.3173 126.887 33.6439 125.09 33.6439C123.292 33.6439 121.736 33.3206 120.421 32.6675ZM127.36 28.5287C127.915 27.9622 128.196 27.2124 128.196 26.2794C128.196 25.3463 127.918 24.6032 127.36 24.0533C126.806 23.5001 126.049 23.2235 125.09 23.2235C124.114 23.2235 123.35 23.5001 122.793 24.0533C122.238 24.6065 121.961 25.3463 121.961 26.2794C121.961 27.2124 122.238 27.9622 122.793 28.5287C123.348 29.0952 124.114 29.3818 125.09 29.3818C126.049 29.3785 126.806 29.0952 127.36 28.5287Z" fill="#A05BF8"/>
<path d="M147.517 19.7912V24.8297C146.937 24.4398 146.186 24.2465 145.256 24.2465C144.039 24.2465 143.099 24.6231 142.447 25.3762C141.791 26.1294 141.465 27.3023 141.465 28.8885V33.1807H135.869V19.5346H141.351V23.8733C141.654 22.2871 142.147 21.1175 142.825 20.361C143.501 19.6079 144.375 19.2313 145.439 19.2313C146.245 19.2313 146.937 19.418 147.517 19.7912Z" fill="#A05BF8"/>
<path d="M166.108 16.3853V33.1805H160.512V30.1248C160.039 31.2744 159.322 32.1509 158.356 32.7507C157.39 33.3472 156.196 33.6471 154.78 33.6471C153.514 33.6471 152.412 33.3338 151.468 32.704C150.525 32.0742 149.798 31.2111 149.286 30.1148C148.777 29.0184 148.519 27.7788 148.519 26.3925C148.503 24.9629 148.774 23.6799 149.331 22.5436C149.886 21.4072 150.672 20.5208 151.684 19.8843C152.695 19.2479 153.85 18.9279 155.146 18.9279C157.811 18.9279 159.599 20.1109 160.512 22.4736V16.3853H166.108ZM159.678 28.4353C160.248 27.8687 160.532 27.1323 160.532 26.2326C160.532 25.3628 160.255 24.653 159.7 24.1098C159.145 23.5667 158.385 23.2934 157.429 23.2934C156.486 23.2934 155.733 23.57 155.168 24.1231C154.604 24.6763 154.323 25.3928 154.323 26.2792C154.323 27.1656 154.604 27.8888 155.168 28.4486C155.733 29.0084 156.477 29.2883 157.406 29.2883C158.349 29.285 159.106 29.0017 159.678 28.4353Z" fill="#A05BF8"/>
<path d="M79.4023 20.9872C80.9427 20.9872 82.192 19.8413 82.192 18.4279C82.192 17.0144 80.9427 15.8686 79.4023 15.8686C77.8614 15.8686 76.6126 17.0144 76.6126 18.4279C76.6126 19.8413 77.8614 20.9872 79.4023 20.9872Z" fill="#A05BF8"/>
<path d="M76.6102 22.7502C78.3195 23.5033 80.4405 23.5366 82.189 22.7502V33.2538H76.6102V22.7502Z" fill="#A05BF8"/>
</g>
</g>
<defs>
<clipPath id="clip0_297_10151">
<rect width="166.393" height="46.7067" fill="white" transform="translate(0.145508 0.818359)"/>
</clipPath>
</defs>
</svg>
